<?xml version="1.0" standalone="no"?>
<!DOCTYPE svg PUBLIC "-//W3C//DTD SVG 20010904//EN"
 "http://www.w3.org/TR/2001/REC-SVG-20010904/DTD/svg10.dtd">
<svg version="1.0" xmlns="http://www.w3.org/2000/svg"
 width="4950.000000pt" height="3450.000000pt" viewBox="0 0 4950.000000 3450.000000"
 preserveAspectRatio="xMidYMid meet">
<metadata>
Created by potrace 1.16, written by Peter Selinger 2001-2019
</metadata>
<g transform="translate(0.000000,3450.000000) scale(0.100000,-0.100000)"
fill="#000000" stroke="none">
<path d="M21360 18131 c0 -16 -6 -62 -14 -102 -8 -41 -19 -117 -26 -169 -18
-154 -29 -240 -40 -325 -41 -300 -61 -761 -40 -945 12 -113 25 -152 59 -189
39 -41 66 -39 110 7 35 37 43 57 72 182 17 77 23 453 9 596 -6 66 -15 171 -20
234 -13 163 -42 430 -60 550 -20 132 -32 190 -41 190 -5 0 -9 -13 -9 -29z"/>
<path d="M22500 17665 l0 -425 100 0 100 0 1 253 0 252 104 -213 104 -213 77
3 77 3 96 202 96 202 7 -82 c3 -45 6 -155 7 -244 l1 -163 100 0 100 0 0 425 0
425 -123 0 -122 0 -122 -242 -121 -243 -118 243 -118 242 -123 0 -123 0 0
-425z"/>
<path d="M24070 18079 c-162 -27 -252 -131 -237 -275 11 -105 69 -156 232
-205 160 -48 188 -61 199 -92 23 -63 -45 -95 -153 -73 -67 14 -179 63 -213 93
-26 23 -39 12 -82 -71 -39 -75 -39 -76 -20 -97 25 -28 166 -94 234 -110 77
-17 214 -15 281 4 133 39 199 118 199 237 0 134 -60 191 -270 257 -151 47
-180 67 -165 114 18 54 160 41 297 -27 26 -13 50 -24 53 -24 6 0 85 167 85
180 0 15 -144 72 -218 86 -87 15 -142 16 -222 3z"/>
<path d="M24830 17665 l0 -425 115 0 115 0 0 160 0 160 165 0 165 0 0 -160 0
-160 115 0 115 0 0 425 0 425 -115 0 -115 0 0 -175 0 -175 -165 0 -165 0 0
175 0 175 -115 0 -115 0 0 -425z"/>
<path d="M26085 17673 c-98 -230 -180 -421 -182 -425 -2 -5 50 -8 116 -8 l119
0 28 70 27 70 180 -2 180 -3 25 -67 25 -68 124 0 c96 0 124 3 120 13 -2 6 -82
198 -178 425 l-172 412 -117 0 -117 0 -178 -417z m395 -110 c0 -2 -47 -3 -105
-3 -58 0 -105 3 -105 7 0 3 23 66 52 140 l51 133 54 -137 c29 -76 53 -139 53
-140z"/>
<path d="M27130 17666 l0 -426 115 0 115 0 0 114 0 114 133 4 c127 3 135 4
200 36 115 57 164 153 155 303 -6 96 -36 160 -96 206 -75 57 -120 65 -384 71
l-238 4 0 -426z m440 216 c41 -20 60 -53 60 -105 0 -47 -24 -91 -59 -108 -14
-7 -68 -14 -118 -17 l-93 -4 0 126 0 126 88 0 c63 0 97 -5 122 -18z"/>
<path d="M28216 17717 c-88 -204 -170 -396 -183 -425 l-23 -53 121 3 122 3 26
68 26 67 180 -2 180 -3 25 -67 25 -68 123 0 c67 0 122 2 122 5 0 5 -263 636
-332 798 l-20 47 -117 0 -116 0 -159 -373z m323 -15 c28 -74 51 -136 51 -138
0 -2 -48 -4 -106 -4 -97 0 -106 2 -100 18 38 100 101 260 103 259 0 -1 24 -62
52 -135z"/>
<path d="M20850 18009 c0 -6 18 -31 39 -56 38 -42 71 -115 71 -156 0 -11 18
-56 39 -101 42 -86 184 -270 204 -263 20 6 21 230 1 291 -52 158 -137 244
-279 280 -71 19 -75 19 -75 5z"/>
<path d="M21780 17971 c-87 -27 -155 -87 -193 -169 -18 -41 -21 -65 -22 -179
0 -72 4 -135 8 -139 11 -12 157 157 157 181 0 4 10 22 23 39 12 17 35 55 51
85 46 86 101 147 143 157 13 4 22 11 20 18 -4 13 -149 19 -187 7z"/>
<path d="M22329 17835 c-3 -2 -77 -16 -164 -30 -275 -45 -355 -80 -427 -185
-21 -30 -41 -59 -46 -65 -30 -37 -94 -191 -106 -255 -16 -82 -29 -660 -15
-660 4 0 10 21 14 48 20 169 106 424 193 571 94 161 184 261 359 402 18 15
143 97 216 142 15 10 27 22 27 27 0 10 -42 14 -51 5z"/>
<path d="M20503 17785 c-3 -9 -4 -17 -2 -18 97 -63 238 -210 337 -352 117
-168 264 -474 312 -650 12 -47 21 -65 33 -65 10 0 4 329 -8 430 -34 279 -112
411 -309 520 -59 32 -335 150 -352 150 -3 0 -7 -7 -11 -15z"/>
<path d="M21785 16934 c-35 -18 -91 -88 -118 -148 -19 -41 -63 -173 -87 -256
-7 -25 -21 -67 -32 -93 -11 -27 -16 -52 -13 -55 8 -8 104 98 105 116 0 6 5 12
10 12 6 0 10 5 10 11 0 6 8 23 18 37 11 15 32 52 48 82 16 30 39 69 51 86 13
17 23 34 23 37 0 16 99 122 140 150 21 15 23 19 10 27 -23 15 -131 11 -165 -6z"/>
<path d="M20730 16894 c0 -12 65 -64 161 -129 96 -65 168 -134 216 -206 14
-22 30 -39 34 -39 5 0 9 -5 9 -11 0 -16 40 -69 51 -69 6 0 7 5 3 11 -6 11 -62
164 -91 254 -23 69 -56 126 -86 149 -14 10 -56 25 -94 32 -70 14 -203 19 -203
8z"/>
<path d="M22462 16671 l3 -199 30 -43 c44 -63 108 -92 204 -92 117 1 184 36
222 118 16 34 19 67 19 228 l0 187 -70 0 -70 0 0 -161 c0 -126 -3 -168 -16
-194 -29 -61 -107 -70 -155 -19 -23 25 -24 32 -27 200 l-4 174 -69 0 -70 0 3
-199z"/>
<path d="M23240 16605 l0 -265 70 0 69 0 3 142 3 142 108 -142 108 -142 64 0
65 0 0 265 0 265 -65 0 -64 0 -3 -150 -3 -150 -113 150 -112 150 -65 0 -65 0
0 -265z"/>
<path d="M24040 16605 l0 -265 70 0 70 0 0 265 0 265 -70 0 -70 0 0 -265z"/>
<path d="M24443 16838 c7 -18 54 -138 103 -266 l89 -233 80 3 79 3 88 225 c49
124 95 242 103 263 l15 37 -78 0 -77 0 -44 -127 c-24 -71 -53 -152 -64 -182
l-20 -55 -62 180 -61 179 -82 3 -83 3 14 -33z"/>
<path d="M25250 16605 l0 -265 215 0 215 0 0 55 0 55 -145 0 -145 0 0 45 0 45
125 0 125 0 0 60 0 60 -125 0 -125 0 0 45 0 45 140 0 140 0 0 60 0 60 -210 0
-210 0 0 -265z"/>
<path d="M25960 16605 l0 -265 75 0 75 0 0 70 0 70 45 0 45 0 37 -70 38 -70
83 0 c45 0 82 2 82 5 0 2 -22 39 -49 82 l-50 77 34 37 c97 108 58 278 -72 317
-24 7 -103 12 -192 12 l-151 0 0 -265z m301 126 c17 -13 23 -29 23 -56 0 -55
-29 -75 -110 -75 l-64 0 0 75 0 75 64 0 c47 0 70 -5 87 -19z"/>
<path d="M26816 16854 c-71 -26 -106 -74 -106 -144 0 -61 22 -94 82 -124 28
-14 58 -26 65 -26 26 0 121 -41 127 -55 9 -24 -22 -45 -69 -45 -29 0 -65 11
-111 34 -37 19 -72 32 -76 30 -12 -8 -48 -81 -48 -97 0 -22 109 -75 178 -86
156 -25 282 43 282 151 0 68 -25 104 -94 137 -33 16 -78 33 -99 36 -22 4 -51
18 -65 31 -27 24 -27 24 -7 40 26 20 84 13 157 -19 l55 -25 27 55 c33 67 28
75 -61 103 -76 23 -180 25 -237 4z"/>
<path d="M27410 16605 l0 -265 75 0 75 0 0 265 0 265 -75 0 -75 0 0 -265z"/>
<path d="M27810 16810 l0 -60 80 0 80 0 0 -205 0 -205 75 0 75 0 0 205 0 205
75 0 75 0 0 60 0 60 -230 0 -230 0 0 -60z"/>
<path d="M28508 16798 c158 -290 162 -299 162 -381 l0 -77 70 0 70 0 0 77 0
76 95 179 c52 98 95 183 95 189 0 5 -33 9 -72 9 l-73 0 -55 -105 c-30 -58 -57
-105 -60 -105 -3 0 -30 47 -60 103 l-55 102 -79 3 -78 3 40 -73z"/>
</g>
</svg>
